<?xml version="1.0" encoding="utf-8"?>
<!-- Generator: Adobe Illustrator 27.6.1, SVG Export Plug-In . SVG Version: 6.00 Build 0)  -->
<svg version="1.1" id="Capa_1" xmlns="http://www.w3.org/2000/svg" xmlns:xlink="http://www.w3.org/1999/xlink" x="136px" y="658px"
	 viewBox="0 0 595.28 841.89" style="enable-background:new 0 0 595.28 841.89;" xml:space="preserve">
<style type="text/css">
	.st0{fill:#326F7F;}
</style>
<g>
	<path class="st0" d="M335.51,640.94c-1-7.92-0.2-16.03-0.5-24.02l0,0v0c-0.11-0.13-0.24-0.27-0.38-0.4
		c0.14,0.13,0.27,0.27,0.38,0.4c0.01-7.32-0.08-14.65-0.04-21.97c-0.34,0.23-0.68,0.45-1.02,0.68c0.34-0.23,0.68-0.45,1.02-0.68
		c-0.01-1.84-0.02-3.69-0.03-5.53l0.23,0.09c-0.28-9.62-0.25-19.26-0.25-28.89c-0.49-0.04-0.99-0.07-1.52-0.11
		c0.53,0.04,1.02,0.07,1.52,0.11c0-6.41,0-12.82,0.01-19.23c-0.37-0.15-0.82-0.35-1.2-0.6c0.38,0.25,0.82,0.45,1.2,0.6
		c0-8.93-0.03-17.85-0.03-26.78h0c-0.09-8.45,0.31-16.99-0.59-25.38c-0.16-0.03-0.47,0-0.63,0.06c-1.9,2.16-2.85,4.88-4.14,7.41
		c-0.42,0.01-0.85,0.02-1.27,0.03c5.5-24.08,11.94-54.03-3.02-75.74c0,0-0.01,0-0.01,0c0,0,0.01,0.01,0.01,0.02
		c-1.11,0.34-2.23,0.71-3.34,1.07c1.11-0.36,2.22-0.72,3.33-1.08c-0.4-0.57-0.8-1.16-1.2-1.75c-0.21-0.05-0.42-0.1-0.63-0.16
		c-0.6,0.74-1.2,1.47-1.81,2.21c0.6-0.74,1.2-1.47,1.81-2.21c-5.09-6.63-13.64-10.42-22-9.4c0,0.18,0,0.37,0,0.55
		c0-0.18,0-0.37,0-0.55c-0.26,0.17-0.52,0.34-0.78,0.52c-5.83,1.29-8.95,5.99-11.58,10.79l0,0c-0.23,0.99-0.45,1.98-0.68,2.98
		c0.23-0.99,0.45-1.98,0.68-2.98c-4.54,7.55-3.06,17.72-3.99,26.32l0,0v0c0.34,0.51,0.69,1.01,1.03,1.52
		c-0.41-0.11-0.82-0.21-1.23-0.32c-12.27,4.13-29.35,8.41-40.21-0.6c-3.44-8.17-4.45-16.5-3.6-25.31
		c1.65-9.27,2.32-18.68,3.35-28.03c0.22-2.25-0.34-3.27-3.13-2.37c-12.24,4.03-14.15-12.34-15.05-20.87c-0.3-0.01-0.6-0.03-0.9-0.04
		c-0.7,11.98,2.46,23.66,3.43,35.5c-4.62,19.39-6.18,38.79-4.26,58.72c0.47-0.51,1.32-1.02,1.34-1.55
		c-0.61-10.06,1.62-19.79,3.39-29.63c8.69-27.24,7.02-13.58,7.09,4.37c-0.23,0.02-0.46,0.03-0.68,0.05c-0.4-1.5-0.22-3.07-0.3-4.61
		c0.13-0.22,0.11-0.43-0.06-0.63v0c-0.67-0.61-1.35-1.21-2.02-1.82c-3.21,12.8-5.99,26.33,1.52,38.23c1.9,3.39-0.48,6.85-0.45,10.33
		c1.14,4.99,4.01,6.21,9.43,4.02v0c0.92-0.24,1.83-0.47,2.75-0.71v0c2.55-0.77,5.04-1.74,7.55-2.63c-2.52,0.23-5.03,0.46-7.55,0.69
		c2.52-0.23,5.03-0.46,7.55-0.69c5.83-2.6,11.85-4.82,17.27-8.2c10.36-4.38-12.86-7.26-15.74-9.79c12.72-3.85,26.32-3.19,38.97-6.87
		c0.08-0.75,0.17-1.51,0.25-2.26c-0.08,0.75-0.17,1.51-0.25,2.26c5.44-2.4,11.15-4.79,15.79-8.56c-0.69,0.57-1.37,1.14-2.06,1.71
		c15.85,1.55,13.21,24.51,12.07,36.24c-0.86,7.7-6.11,13.31-12.8,16.73l0.02-0.02c-2.16,0.79-4.46,2.52-6.8,2.09
		c16.81-10.33,20.49-17.86,18.97-37.75h0c-2.22-12.76-6.51-19.64-18.25-9.16c-9.01,4.08-18.1,5.89-28,6.65
		c7.05,0.27,7.75,4.91,7.3,10.67c-2.76,3.95-6.97,6.54-11.09,8.9c-4.44,1.41-9.02,3.86-13.69,5.07c0.49,0.59,0.98,1.18,1.46,1.77
		c-0.49-0.59-0.98-1.18-1.46-1.77c-7.71,2.84-15.9,4.21-23.93,2.01c-5.56-5.38-0.76-12.78-2.18-19.24
		c-1.47-2.08-3.45-3.62-5.39-5.23c-0.45,31.93,0.21,63.86,0.1,95.79c1.01,0.66,2.01,1.32,3.02,1.98c-1.01-0.66-2.01-1.32-3.02-1.98
		c0.01,11.67,0.02,23.35,0.02,35.02c0.33,0.23,0.66,0.46,1,0.69c-0.33-0.23-0.67-0.46-1-0.69c0.01,23.12,0.02,46.23,0.04,69.35
		c0.3,1.79-1.45,4.58,2.29,4.68c13.15-0.03,26.29-0.02,39.44-0.08v0c6.86,0.03,13.73,0.06,20.59,0.09l0,0h0
		c0.23-0.33,0.46-0.66,0.69-0.99c-0.23,0.33-0.46,0.66-0.69,0.99c4.57-0.14,9.11,0.21,13.65,0.73c0.88-0.6,1.72-1.19,2.81-1.27
		l-0.11,0.22c7.37,0.05,14.73-0.38,22.1-0.26l-0.07,0.33c1.87-0.13,3.73-0.28,5.6-0.44l-0.08,0.23c1.16,0,2.32,0,3.48,0
		C337.31,661.2,334.15,650.75,335.51,640.94z M238.38,394.62c0.02,0.09,0.09,0.23,0.06,0.25
		C238.47,394.85,238.4,394.71,238.38,394.62c-0.05,0.01-0.1,0.02-0.15,0.04C238.28,394.65,238.33,394.64,238.38,394.62z
		 M237.58,447.31C237.58,447.31,237.57,447.32,237.58,447.31L237.58,447.31c-0.28-0.35-0.55-0.7-0.83-1.04
		C237.02,446.62,237.3,446.97,237.58,447.31c0.78,1.12,1.56,2.25,2.35,3.37C239.14,449.56,238.36,448.44,237.58,447.31z
		 M298.16,428.53C298.16,428.53,298.16,428.53,298.16,428.53C298.16,428.53,298.16,428.53,298.16,428.53
		c-0.14-0.06-0.35-0.1-0.46-0.17C297.81,428.43,298.01,428.47,298.16,428.53c0.06-0.14,0.18-0.31,0.22-0.44
		C298.34,428.22,298.22,428.39,298.16,428.53z M311.45,515.11C311.45,515.11,311.45,515.11,311.45,515.11
		C311.45,515.11,311.46,515.11,311.45,515.11c-0.06,0.14-0.1,0.35-0.18,0.46C311.35,515.45,311.39,515.25,311.45,515.11
		c-0.14-0.06-0.31-0.19-0.44-0.22C311.14,514.92,311.31,515.04,311.45,515.11z M310.69,515.27c-0.02,0.06-0.04,0.11-0.06,0.16
		c0.05,0.02,0.1,0.05,0.15,0.08c-0.05-0.03-0.1-0.06-0.15-0.08C310.65,515.38,310.67,515.33,310.69,515.27z M293.87,511.86
		c0-0.34,0-0.67-0.01-1.01C293.9,511.19,293.91,511.52,293.87,511.86z M293.46,508.93c-0.05-0.18-0.09-0.36-0.13-0.55
		C293.37,508.57,293.41,508.75,293.46,508.93z M293.3,508.23c-0.03-0.16-0.06-0.32-0.08-0.49
		C293.24,507.91,293.27,508.07,293.3,508.23z M324.87,500.87L324.87,500.87c-2.58,7.41-5.18,15.6-10.69,21.42v0l0,0
		c0.02,0.37,0.06,0.74,0.1,1.11c-0.04-0.37-0.08-0.74-0.1-1.11c-3.54,3.51-7.55,6.64-9.41,11.52
		c-12.47,8.93-18.38-11.82-10.62-19.63c0.4,0.57,0.81,1.15,1.22,1.73c0.26-0.02,0.53-0.05,0.79-0.07c-0.26,0.02-0.53,0.05-0.79,0.07
		c0,0-0.02,0.25-0.02,0.25c0.27,0,0.54-0.01,0.81-0.03c-0.27,0.02-0.54,0.02-0.81,0.03c-1.99,2.62-2.59,6.09-1.71,9.24
		c0.02-0.05,0.04-0.11,0.05-0.16c-0.02,0.05-0.03,0.11-0.05,0.16c0,0,0,0,0,0c0,0,0,0,0,0c1.42,2.61,3.7,3.86,6.39,4.88
		c14.63-10.37,23.8-27.32,25.99-44.94c1.35-18.99,3.87-41.92-14.36-53.97c-3.56-2.46-7.84-2.96-11.95-0.37
		c0.52-5.7,4.73-4,7.88-4.35c20.52,9.02,22.5,32.48,21.4,52.25c0.65,0,1.29,0,1.94,0c-0.65,0-1.29,0-1.94,0v0
		C328.67,486.38,327.36,493.8,324.87,500.87c0.65,0,1.3,0.01,1.95,0.01C326.17,500.87,325.52,500.87,324.87,500.87z M333.02,539.07
		c-0.14,0.3-0.16,0.56-0.08,0.81C332.86,539.63,332.88,539.37,333.02,539.07z M333.15,540.26c-0.09-0.12-0.16-0.24-0.21-0.37
		C332.99,540.02,333.06,540.14,333.15,540.26z"/>
	<polygon class="st0" points="254.05,480.96 254.05,480.96 254.05,480.96 	"/>
	<path class="st0" d="M262.97,305.14L262.97,305.14c0.02,0.02,0.03,0.04,0.05,0.07C263,305.19,262.99,305.17,262.97,305.14z"/>
	<path class="st0" d="M229.21,377.97c3.07,12.77,7.54,12.45,19.14,8.34c-0.44,18.25-18.36,64.97,13.69,61.45
		c23.67-1.94,11.24-24.65,25.57-35.54c11.91-10.01,29.21-7.98,38.68,6.21c1.8,0.58,2.82,0.17,3.35-1.89
		c1.56-9.74-10.42-13.8-15.9-19.94c-8.87-5.57-17.09-0.81-25.94,0.85c32.84-16.65,34.32,14.77,43.14-2.75c0,0,0,0,0,0c0,0,0,0,0,0
		c0,0.01,0.02,0.16,0.02,0.16c3.84-11.26,6.07-23.44,3.95-35.42c-0.44-0.01-0.87-0.02-1.31-0.03c0,0,0,0,0,0c0,0,0,0,0,0
		c-14.07,32.23-30.76,20.83-54.25,37.07c0.73-0.07,1.45-0.15,2.19-0.22c-0.74,0.07-1.47,0.15-2.19,0.22c0,0,0,0,0,0
		c-1,0.46-2,0.92-3,1.38c4.38-6.83,13.95-7.69,20.68-11.58c0.01-0.06,0.03-0.13,0.03-0.13l0.2,0.15c-0.07-0.09-0.13-0.05-0.18,0.01
		c0.02-0.03,0.05-0.07,0.06-0.08c-0.04,0.02-0.07,0.03-0.11,0.05c-0.03,0.1-0.02,0.11-0.01,0.1c0,0.01-0.01,0.01-0.01,0.02
		c7.08-1.73,13.18-4.85,17.93-10.49c0,0-0.01-0.05-0.01-0.05c4.89,1,14.34-10.59,15.32-15.74c3.75-7.78,7.23-17.85,0.67-25.28
		c-0.46,0.19-0.93,0.37-1.39,0.56c-0.88,3.93-0.91,7.98-1.33,11.98c0,0,0.02,0.03,0.02,0.03c0,0,0,0,0,0
		c0.36,5.18-2.49,9.2-5.18,13.19c-2.8-0.69-6.05-0.41-8.59-1.73c-13.16,8.16-24.86,18.64-39.27,24.83v0
		c-1.61,0.97-3.55,0.43-5.34,0.55c-0.51-0.68-0.89-1.44-1.29-2.19c0.46-1.36,0.91-2.73,1.37-4.09c-0.07-0.23-0.14-0.46-0.22-0.68
		c1.09-6.58,8.23-9.27,12.47-13.78c0-0.21,0.03-0.41,0.09-0.61c6.85-3.79,11.28-9.4,14.32-16.55l-0.02,0.02
		c-0.26-1.4-0.58-2.8-0.6-4.23c-4.66-5.57-10.79-8.84-17.19-12.03c-0.25,0.27-0.51,0.54-0.76,0.81
		c8.47,12.05-1.35,20.73-11.61,26.33c-7.1,2.52-23.42,15.19-19.22-1.24c-2.15,3.79-9.43,16.24,0.46,13.72
		c13.18-6.78,26.52-13.32,38.68-21.85c0.19,0.19,0.38,0.38,0.57,0.56c-1.76,9.97-18.25,17.05-24.76,28.15
		c0.06,0.17,0.09,0.35,0.09,0.54c-8.1,11.6-12.28,25.18-12.16,39.29c1.37,4.61-0.14,10.96,5.36,12.93c0.75-0.25,1.5-0.5,2.25-0.75
		c4.77-10.14,7.79-22.09,16.92-29.25c-5.13,8.71-9.85,16.83-11.57,26.93c-1.58,6.48-3.91,8.39-10.28,7.81
		c-7.99-5.28-2.51-22.75-6.27-20.78c-1.39,8.67-0.49,16.87,2.1,25.1c4.4,2.34,7.48,4.23,12.38,2.34c8.4-1.97,7.35-11.77,9.83-17.85
		c1.74-5.01,2.54-10.95,6.55-14.69c-5.03,8.64-6.46,18.52-9.21,27.92c-3.31,6.89-16.3,9.15-19.61,2.25
		c0.01,0.01,0.02,0.01,0.04,0.02c-8.99-16.72-0.84-36.35,3.1-53.48c0.48,0.13,0.95,0.26,1.43,0.4c-2.14,6.53-4.48,12.92-4.76,19.9
		c3.03-10.36,5.98-20.69,12.52-29.48c1.79-3.69,4.41-7.07,4.97-11.21c-0.25-0.24-0.51-0.48-0.76-0.72
		c-22.32,11.22-31.14,16.49-19.83-13.3c-0.59-1.88-1.19-3.77-1.78-5.65c2.07,12.2-13.11,19.32-9.39,31.42
		c3.1,12.92,12.87,0.13,20.97,1.16c-0.44,2.41-0.85,4.69-1.26,6.97c-0.42,0-0.84,0-1.26-0.01c-0.27-1.4-0.54-2.8-0.91-4.73
		c-7.12,3.4-16.47,9.9-19.52-1.36c-2.64-8.8-3.51-23.82,0.31-31.9c1.16,2.03,2.37,2.74,4.03,4.09c3.28-6.39-5.98-41.82-9.53-49.4
		c-0.34,0.08-0.68,0.15-1.02,0.23c-0.2,1.93-0.39,3.85-0.59,5.78c0.64-0.36,1.27-0.73,2.35-1.34
		C233.88,329.14,224.52,354.17,229.21,377.97z M287,399.94c0.33,0.29,0.66,0.58,0.98,0.87h0l0,0c-0.78,0.17-1.57,0.33-2.35,0.5
		c-0.35,0.26-0.68,0.53-1.03,0.79C285.5,401.48,286.25,400.72,287,399.94z M278.8,404.05L278.8,404.05
		C278.8,404.05,278.8,404.05,278.8,404.05L278.8,404.05c0.29,0.09,0.59,0.19,0.88,0.28C279.38,404.24,279.09,404.14,278.8,404.05
		l-0.04,0.04C278.75,404.09,278.79,404.05,278.8,404.05C278.79,404.05,278.79,404.05,278.8,404.05c-0.11-0.09-0.21-0.18-0.32-0.27
		C278.58,403.87,278.69,403.96,278.8,404.05z"/>
	<path class="st0" d="M265.73,301.09l-0.05-0.05C265.7,301.06,265.72,301.08,265.73,301.09
		C265.74,301.09,265.74,301.09,265.73,301.09L265.73,301.09c0-0.01-0.01-0.02-0.01-0.04c-0.01,0-0.03-0.01-0.04-0.01
		C265.68,301.04,265.72,301.08,265.73,301.09z"/>
	<path class="st0" d="M237.29,155.23c17.22-18.24,51.31-10.69,57.86,14.26c-3.42-0.63-6.07-1.12-9.38-1.73
		c5.31,10.7,9.03,20.76,11.56,32.23c5.45,11.53-17.75,48.4,7.01,42.53c5.29-0.72,6.97,4.67,10.65,8.82
		c4.88-12.89,5.17-25.31,6.16-38.66c-0.04-16.25-5.99-32.17-3.7-48.57c-3.29,16.47,0.3,32.87,0.97,49.35
		c0.13,2.79-1.37,5.87-2.84,8.39c-6.94,5.07-6.94-3.6-6.49-8.69c0.18-0.25,0.36-0.51,0.54-0.76c0.27-16.5,0.1-32.97-1.91-49.36
		c0.18-0.25,0.37-0.5,0.55-0.74c2.25-16.11,0.09-28.03-15.83-35.75c0.31-0.02,0.6-0.02,0.85,0.07c-0.05-0.19-0.09-0.39-0.12-0.58
		c-4.17-1.82-8.63-2.78-12.98-4.06c-5.54,2.55-3.03,8.96-1.95,13.15c14.62,7.72,26.44,0.67,24.48,24.72
		c-5.95-2.77-11.1-6.66-16.94-8.53c-14.45-11.81-38.13-10.19-50.32,4.8v0c-0.17,0.44-0.33,0.89-0.5,1.33
		c0.31-0.24,0.63-0.48,0.94-0.72C236.35,156.23,236.82,155.73,237.29,155.23z"/>
	<path class="st0" d="M234.95,157.45c-0.04,0.03-0.09,0.07-0.13,0.1l0.06,0.08C234.9,157.57,234.92,157.51,234.95,157.45z"/>
	<path class="st0" d="M226.06,369.14c0.12-0.02,0.24-0.05,0.36-0.07c-0.03-0.08-0.06-0.16-0.09-0.23
		C226.1,368.83,226.07,368.95,226.06,369.14z"/>
	<path class="st0" d="M334.95,358.78c-0.45,0.21-0.89,0.41-1.34,0.62c0.44,0.01,0.87,0.02,1.31,0.03
		C335.02,359.22,335.03,359,334.95,358.78z"/>
	<path class="st0" d="M233.25,431.72c0.67,0.61,1.35,1.21,2.02,1.82c-0.28-1.15-0.56-2.29-1.09-4.45
		C233.64,430.63,233.44,431.18,233.25,431.72z"/>
	<path class="st0" d="M284.86,448.52c0.41,0.11,0.82,0.21,1.23,0.32c-0.34-0.51-0.69-1.01-1.03-1.52
		C284.99,447.72,284.93,448.12,284.86,448.52z"/>
	
		<rect x="237.58" y="447.31" transform="matrix(0.7071 -0.7071 0.7071 0.7071 -246.7147 299.0073)" class="st0" width="0" height="0"/>
	<path class="st0" d="M326.95,346.05c-0.29-6.52-0.48-13.05-0.69-19.58c0.33-0.23,0.65-0.46,0.98-0.69
		c-3.01-3.16-5.8-2.18-8.56,0.04c-5.03,3.23,0.93,9.03,1.78,13.22c-0.35,0.31-0.7,0.62-1.05,0.93
		c-11.58-5.77-23.93-9.92-35.13-16.19c0.93-0.12,1.86-0.31,2.79-0.08c0,0,0,0,0,0c0.19-0.32,0.39-0.65,0.58-0.97
		c-0.19,0.32-0.39,0.65-0.58,0.97c0,0-0.06,0.03-0.06,0.03c2.84,1.42,18.56,8.97,19.23,4.13c2.88-6.48,8.21-10.03,10.22-17.11
		c-3.45,0.95-4.65,0.98-7.09,2.1l0.01,0c-1.83,0.15-3.66,0.43-5.5,0.52c3.76-1.95,7.27-4.4,10.18-7.48
		c-0.11,0.15-0.22,0.3-0.33,0.45c0,0,0.05,0.01,0.05,0.01c9.16-5.47,15.3-16.15,16.4-26.54c-1.35,1.63-2.7,3.26-4.05,4.89
		c-0.27-0.15-0.54-0.31-0.81-0.46c9.95-25.44,9.81-54.81,4.27-81.3c-0.26,0.39-0.53,0.79-0.79,1.18c-2.14-9.46-0.5-19.51-5.24-28.53
		c-3.08,9.11-1.27,18.64-0.22,27.83c1.92,19.41-0.57,39.42-5.62,58.16c-3.09,5.3-6.4-3.2-7.34-5.92
		c-2.61-14.51-19.43-5.57-19.18-18.99c1.9-17.33,9.1-34.11,0.78-50.99c-5.71-10.86-13.28-20.58-20.11-30.75
		c-7.37-7.64-19.5-6.18-26.67,0.73c-1.42,3.04,0.46,3.64,2.87,3.99c15.53,1.31,30.13,10,38.12,23.52
		c10.36,14.64,3.85,31.6-0.52,47.12c0.17,0.18,0.34,0.35,0.51,0.53c-0.18,0.08-0.35,0.16-0.53,0.24
		c-4.17,26.87,7.32,16.51,15.18,31.54c4.58,6.72-5.94,27.82,7.4,26.25c0.01,0.28,0.01,0.56,0.02,0.84
		c-5.91,2.32-12.04,2.43-18.41,2.43c3.94-5.68,4.96-12.78,7.35-19.2c3.75-9.71-6.54-15.27-12.87-20.71
		c-0.01,0.17-0.02,0.33-0.03,0.5c-0.07-0.85-0.36-1.66-0.71-2.48c-5.98-14.87,2.16-30.55-0.82-45.72
		c-2.18-7.15-3.59-17.29-12.87-18.03c-0.18,0.23-0.36,0.45-0.54,0.68c-0.7,8.43,3,16.33,4.43,24.73c6.5-0.53,2.61,11.02,2.54,15.09
		c-2.76,11.25-2.88,22.69-3.74,34.18l0,0c0.16,0.25,0.31,0.51,0.47,0.77c-0.15-0.26-0.31-0.52-0.47-0.77
		c-4.99,6.02-14.23,4.03-17.77-2.68c-1.52-6.2-5.8-11.65-7.7-17.84c-0.87-4.12-4.13-14.41-8.83-7.56
		c-5.44,12.81-2.02,25.74,0.2,38.84c0.12-0.03,0.25-0.06,0.37-0.09c0.48-6.17-1.56-12.07,2.9-17.3
		c6.83,10.76,9.98,21.67,16.31,32.22l-0.01-0.01c0.76,1.8,1.52,3.59,2.28,5.39l-0.09-0.04c0.01,0,0.09,0.04,0.09,0.04
		c-0.03,0-0.05,0-0.08,0c0.23,0.46,0.47,0.92,0.7,1.38c0-0.02-0.01-0.03-0.01-0.05c1.95,2.34,3.87,4.64,4.8,7.59
		c0.46,0.09,0.92,0.18,1.38,0.28c0.11,0.5,0.21,0.99,0.32,1.49c-0.56-0.57-1.12-1.15-1.68-1.72c-0.23-0.01-0.47-0.03-0.7-0.04
		c-0.02,0.07-0.08,0.23-0.14,0.41c0.05-0.14,0.1-0.27,0.14-0.41c-2.44-2.57-3.61-5.73-4.8-8.93c-0.44,0-0.89,0-1.33-0.01
		c-0.74-1.67-1.43-3.36-2.27-4.98h0c-4.04-7.82-7.17-15.3-13.09-22.23c-2.93,10.33,0.65,18.35-0.49,27.91
		c-0.22,0.06-0.44,0.05-0.65-0.04c-4.45-17.79-11.34-36.27-7.57-54.76c1.21-7.46,9.22-16.63,12.29-4.64
		c3.6,9.45,8.33,33.81,22.72,25.22c2.96-9.77,1.59-20.4,2.96-30.45c-2.41,0-4.05,0-5.7,0c-1.75-1.91-2.56-4.39-3.47-6.77
		c-8.4-19.04-23.76-8.72-31.09,5.68c0,0,0,0,0,0c0,0,0,0,0,0c0,0,0,0,0,0c0,0,0,0,0,0c-6.18,15.93-2,33.01-0.05,49.33
		c4.59,21.7,6.66,44.75,18.78,63.82h0c6.94,9.75,1.84,13.66,4.87,19.32c3.91-1.97,8.51-2.91,11.88-5.75c0,0,0,0,0,0
		c0.55-1.24,1.11-2.48,1.66-3.72c0.52,0.39,1.04,0.79,1.55,1.18c18.56-12.08-15.52-33.59-0.02-29.58c0.05-0.21,0.05-0.43,0.01-0.65
		c2.33,1.45,5.6,1.12,7.57,3.03c0.14-0.16,0.32-0.22,0.54-0.19c0.03,0.22-0.03,0.42-0.18,0.59c11.96,7.31,30.57,10.68,34.67,25.78
		c0.41,1.18,1.77,2.11,2.53,3.12c5.79,6.01,5.79,3.33,9.61-1.89c1.01-1.28-0.09-4,2.26-4.03c0,0-0.02-0.03-0.02-0.03
		C327.77,346.94,326.97,346.51,326.95,346.05z M310.52,298.13c0.18-0.19,0.36-0.38,0.55-0.56c0,0,0.03,0.03,0.03,0.03
		C310.9,297.76,310.71,297.95,310.52,298.13z M308.41,300.32c0.32-0.33,0.63-0.65,0.95-0.98C309.04,299.67,308.73,300,308.41,300.32
		z M316.01,294.44c2.85-2.94,5.96-5.66,8.4-8.97c0.25,0.19,0.5,0.38,0.74,0.57c-1.86,4.14-6.46,6.04-8.86,9.6
		c-1.74,0.64-3.47,1.27-5.21,1.91c-0.06-0.2-0.06-0.39,0.01-0.59C312.8,296.42,314.33,295.17,316.01,294.44z M308.97,289.8
		c0.23-0.55,0.46-1.11,0.68-1.66c1.3-0.51,2.59-1.02,3.89-1.53c0.07,0.13,0.14,0.27,0.21,0.4c-0.93,0.72-1.87,1.45-2.8,2.17
		C310.22,289.23,309.52,289.26,308.97,289.8c-0.19,0.66-0.38,1.31-0.63,2.16C308.59,291.11,308.78,290.45,308.97,289.8z
		 M292.49,314.75c3.16,0.16,6.2-0.78,9.3-0.65c0.19-0.23,0.37-0.46,0.56-0.69l0,0c0,0,0,0,0,0c0,0,0,0,0,0
		c-0.19,0.23-0.37,0.46-0.56,0.69c0,0,0,0,0,0c-0.33,0.3-0.66,0.59-0.99,0.89c-2.93,0.56-5.87,0.75-8.84,0.43
		C292.14,315.2,292.32,314.97,292.49,314.75z M294.51,274.65c0.24,0.32,0.49,0.65,0.7,0.98C295,275.3,294.76,274.97,294.51,274.65z
		 M260.92,288.71c-0.23-0.23-0.46-0.46-0.69-0.69C260.46,288.25,260.68,288.47,260.92,288.71
		C260.91,288.7,260.92,288.71,260.92,288.71c0.17,0.57,0.34,1.14,0.51,1.72C261.26,289.85,261.09,289.28,260.92,288.71z
		 M233.17,228.39c0.11,0.23,0.22,0.46,0.33,0.69c2.23-9.54,18.93-22.43,22.58-7.21c0.98,7.69,4.36,15.08,2.6,22.85
		c-11.1-10.16-5.18-36.46-25.01-14.06C233.7,229.95,233.48,229.15,233.17,228.39z M285.58,267.35c-0.42-0.14-0.85-0.2-1.28-0.2
		C284.74,267.15,285.17,267.21,285.58,267.35z M276.59,265.36c0.05-11.09-2.68-22.03,0.32-32.91c2.82-11.52,4.35-23.16,0.39-34.65
		c0.32-0.12,0.65-0.23,0.97-0.35c10.23,20.82-9.3,44.32,3.22,64.5c0.21,1.83,0.42,3.66,0.63,5.49c0.64-0.13,1.31-0.26,1.96-0.29
		c-0.65,0.02-1.32,0.16-1.96,0.29c0.33,4.92-2.51,8.8-4.64,13.01c0,0,0,0,0,0c-0.72,0.26-1.43,0.52-2.15,0.78v0
		c-0.26-0.4-0.51-0.79-0.77-1.19C277.2,275.34,273.95,270.12,276.59,265.36z M276.26,282.92c-0.16-0.11-0.3-0.24-0.42-0.4
		C275.96,282.68,276.1,282.82,276.26,282.92z M267.47,302.86c0,0.01,0.01,0.01,0.01,0.02c0.48-0.08,0.99-0.02,1.49,0.14
		c-0.5-0.16-1.01-0.22-1.49-0.14c0,0,0,0,0,0c0,0,0,0,0,0c0.02,0.04,0.12,0.22,0.12,0.22l-0.16-0.22c0.01,0,0.03,0,0.04,0
		C267.47,302.87,267.47,302.86,267.47,302.86z M264.69,302.02c-0.03,0.09-0.02,0.11,0.05-0.05c-0.03,0.06-0.08,0.15-0.1,0.2
		C264.65,302.13,264.67,302.08,264.69,302.02z M258.81,298.84c0.42,0.33,0.84,0.66,1.26,0.98c0.08,0.39,0.15,0.78,0.23,1.16
		c0.2,0.02,0.39,0.05,0.58,0.09c0.02,0.47,0.04,0.94,0.06,1.41c-0.01-0.01-0.02-0.02-0.03-0.03c0.28,0.37,0.57,0.74,0.85,1.11
		c-1.07-1.28-2.22-2.48-3.15-3.88C258.68,299.41,258.75,299.13,258.81,298.84z M257.8,319.77c-0.49,0.13-0.98,0.26-1.47,0.39
		c-1.88-7.5-3.68-15.03-5.65-22.5c0.43,0,0.87,0,1.3,0C252.67,305.3,255.78,312.42,257.8,319.77z M250.03,285.58
		c1.14,1.04,2.29,2.09,3.43,3.13c-0.08,0.2-0.09,0.4-0.03,0.61c0.2,0.04,0.4,0.08,0.59,0.13c0.01,0.22,0.06,0.42,0.15,0.62
		c-0.4-0.05-0.8-0.1-1.2-0.16c-0.65-0.57-1.3-1.14-2.24-1.95c0,2.79,0.01,4.44-0.05,6.94c-0.25-0.02-0.49-0.04-0.74-0.06
		c-0.26-2.86-0.51-5.72-0.77-8.57C249.46,286.04,249.75,285.81,250.03,285.58z M243.71,314.44c-0.03-0.52-0.15-1.02-0.33-1.5
		C243.56,313.42,243.68,313.91,243.71,314.44z M252.35,340.29c0.22,0.03,0.42,0.07,0.59,0.14
		C252.77,340.36,252.56,340.32,252.35,340.29z M257.26,340.23c-6.82-6.79-11.89-14.45-14.36-23.81c-0.07-0.19,0.51-0.6,0.79-0.91
		c0.03-0.34,0.04-0.67,0.02-1c0.02,0.33,0.01,0.66-0.02,1l0,0c2.82,11.17,10.62,18.8,19.95,24.76
		C261.5,342.67,259.13,342.26,257.26,340.23z M267.65,311.49c-2.03-1.84-3.52-3.89-4.7-6.35c0,0,0.01,0,0.01,0c0,0,0,0,0-0.01
		c0,0,0,0,0,0.01c0.22,0,0.43,0.02,0.64,0.06c1.04,2.67,3.98,4.15,4.73,6.78C268.11,311.82,267.88,311.66,267.65,311.49z
		 M269.55,313.63l0.01-0.03c-0.08-0.1-0.15-0.21-0.23-0.31c0.1,0.05,0.19,0.11,0.29,0.16l-0.06,0.15c0.25,0.25,0.5,0.49,0.76,0.72
		c-0.21-0.18-0.42-0.36-0.63-0.54L269.55,313.63z M271.95,315.73c0.45,0.37,0.89,0.74,1.32,1.13
		C272.83,316.48,272.39,316.1,271.95,315.73z M271.01,314.21c0.75,0.43,1.5,0.86,2.26,1.27
		C272.52,315.06,271.77,314.64,271.01,314.21z M275.35,309.98c-0.53-0.58-1.15-1.06-1.77-1.52
		C274.2,308.93,274.82,309.4,275.35,309.98c0.72,0.07,1.43-0.02,2.13-0.15c-0.26,0.06-0.52,0.11-0.77,0.17
		C276.25,310,275.8,309.99,275.35,309.98z M277.39,320.11C277.39,320.11,277.39,320.11,277.39,320.11
		C277.39,320.11,277.39,320.11,277.39,320.11c-0.16-0.13-0.32-0.26-0.47-0.39C277.08,319.85,277.23,319.98,277.39,320.11
		c0.06-0.17,0.15-0.33,0.17-0.51C277.54,319.78,277.45,319.94,277.39,320.11z M280.3,321.97c-0.17,0.45-0.35,0.89-0.57,1.3
		C279.92,322.83,280.11,322.4,280.3,321.97z M281.1,291.17c0.07,0.12,0.1,0.32,0.16,0.47c0,0,0,0,0,0c0,0,0,0,0,0
		c-0.15,0.06-0.32,0.17-0.45,0.2c0.13-0.03,0.3-0.14,0.45-0.2C281.2,291.5,281.17,291.29,281.1,291.17z M285.44,302.21
		c-0.14,0.27-0.32,0.63-0.5,0.97C285.12,302.83,285.3,302.48,285.44,302.21c-1.52-0.76-3.03-1.51-4.55-2.27
		C282.41,300.7,283.92,301.45,285.44,302.21z"/>
	<path class="st0" d="M271.23,351.24c-0.52-0.39-1.04-0.79-1.55-1.18c-0.55,1.24-1.11,2.48-1.66,3.72
		C269.08,352.93,270.16,352.09,271.23,351.24z"/>
	<path class="st0" d="M248.57,438.4c-0.01,0-0.01-0.01-0.02-0.01c0.01,0.01,0.01,0.03,0.02,0.04
		C248.57,438.43,248.57,438.42,248.57,438.4z"/>
	<path class="st0" d="M287.99,400.81c-0.33-0.29-0.66-0.58-0.98-0.87v0c-0.46,0.46-0.91,0.92-1.37,1.37
		C286.42,401.15,287.2,400.98,287.99,400.81z"/>
	<path class="st0" d="M330.89,394.82c0,0,0.04-0.13,0.04-0.13c0,0,0,0,0,0C330.93,394.7,330.89,394.82,330.89,394.82z"/>
	<path class="st0" d="M260.21,292.08L260.21,292.08C260.22,292.09,260.21,292.08,260.21,292.08c0.01,0.01,0.01,0.03,0.02,0.04h0
		C260.23,292.11,260.22,292.1,260.21,292.08z"/>
	<path class="st0" d="M247.15,407.81c0.48,0.7,0.96,1.4,1.44,2.1C248.1,409.22,249.79,407.04,247.15,407.81z"/>
	<path class="st0" d="M252.12,220.39c-1.66-6.08-7.51-4.69-11.49,0.45C244.34,217.75,248.05,220.01,252.12,220.39z"/>
	<path class="st0" d="M305.13,345.74c-2.24,3.99-4.38,7.8-6.42,11.43C303.51,357.4,306.6,352.35,305.13,345.74z"/>
</g>
</svg>
